<mxfile host="app.diagrams.net" modified="2021-03-23T12:45:12.034Z" agent="5.0 (Windows NT 10.0; Win64; x64) AppleWebKit/537.36 (KHTML, like Gecko) Chrome/89.0.4389.90 Safari/537.36" etag="MQBxKjveJs1gdLsTLl6t" version="14.4.8" type="github">
  <diagram id="cMcRvVcGeGw1HKMYI198" name="Page-1">
    <mxGraphModel dx="1422" dy="772" grid="0" gridSize="10" guides="1" tooltips="1" connect="1" arrows="1" fold="1" page="1" pageScale="1" pageWidth="827" pageHeight="1169" math="0" shadow="0">
      <root>
        <mxCell id="0" />
        <mxCell id="1" parent="0" />
        <mxCell id="sNa2Os-df0Qrg9O8YbUV-44" value="Server" style="rounded=0;whiteSpace=wrap;html=1;" vertex="1" parent="1">
          <mxGeometry x="99" y="239" width="167" height="229" as="geometry" />
        </mxCell>
        <mxCell id="sNa2Os-df0Qrg9O8YbUV-48" style="rounded=0;orthogonalLoop=1;jettySize=auto;html=1;exitX=0;exitY=0;exitDx=22;exitDy=29;exitPerimeter=0;entryX=0.5;entryY=0;entryDx=0;entryDy=0;endArrow=none;endFill=0;startArrow=none;startFill=0;" edge="1" parent="1" source="sNa2Os-df0Qrg9O8YbUV-47" target="sNa2Os-df0Qrg9O8YbUV-44">
          <mxGeometry relative="1" as="geometry" />
        </mxCell>
        <mxCell id="sNa2Os-df0Qrg9O8YbUV-47" value="Switch" style="shape=cube;whiteSpace=wrap;html=1;boundedLbl=1;backgroundOutline=1;darkOpacity=0.05;darkOpacity2=0.1;size=22;" vertex="1" parent="1">
          <mxGeometry x="333" y="136" width="120" height="29" as="geometry" />
        </mxCell>
        <mxCell id="sNa2Os-df0Qrg9O8YbUV-49" style="rounded=0;orthogonalLoop=1;jettySize=auto;html=1;exitX=0.521;exitY=0.966;exitDx=0;exitDy=0;exitPerimeter=0;entryX=0.5;entryY=0;entryDx=0;entryDy=0;endArrow=none;endFill=0;startArrow=none;startFill=0;" edge="1" parent="1" source="sNa2Os-df0Qrg9O8YbUV-47" target="sNa2Os-df0Qrg9O8YbUV-59">
          <mxGeometry relative="1" as="geometry">
            <mxPoint x="627" y="335" as="sourcePoint" />
            <mxPoint x="379" y="244" as="targetPoint" />
          </mxGeometry>
        </mxCell>
        <mxCell id="sNa2Os-df0Qrg9O8YbUV-50" style="rounded=0;orthogonalLoop=1;jettySize=auto;html=1;exitX=0;exitY=0;exitDx=120;exitDy=25.5;exitPerimeter=0;entryX=0.5;entryY=0;entryDx=0;entryDy=0;endArrow=none;endFill=0;startArrow=none;startFill=0;" edge="1" parent="1" source="sNa2Os-df0Qrg9O8YbUV-47" target="sNa2Os-df0Qrg9O8YbUV-60">
          <mxGeometry relative="1" as="geometry">
            <mxPoint x="667.52" y="334.0139999999999" as="sourcePoint" />
            <mxPoint x="618.5" y="248" as="targetPoint" />
          </mxGeometry>
        </mxCell>
        <mxCell id="sNa2Os-df0Qrg9O8YbUV-51" value="Client" style="ellipse;whiteSpace=wrap;html=1;" vertex="1" parent="1">
          <mxGeometry x="269.5" y="59" width="53" height="33" as="geometry" />
        </mxCell>
        <mxCell id="sNa2Os-df0Qrg9O8YbUV-52" value="Client" style="ellipse;whiteSpace=wrap;html=1;" vertex="1" parent="1">
          <mxGeometry x="366.5" y="59" width="53" height="33" as="geometry" />
        </mxCell>
        <mxCell id="sNa2Os-df0Qrg9O8YbUV-53" value="Client" style="ellipse;whiteSpace=wrap;html=1;" vertex="1" parent="1">
          <mxGeometry x="456.5" y="59" width="53" height="33" as="geometry" />
        </mxCell>
        <mxCell id="sNa2Os-df0Qrg9O8YbUV-55" style="rounded=0;orthogonalLoop=1;jettySize=auto;html=1;entryX=0;entryY=0;entryDx=0;entryDy=0;endArrow=none;endFill=0;startArrow=none;startFill=0;exitX=0.5;exitY=1;exitDx=0;exitDy=0;entryPerimeter=0;" edge="1" parent="1" source="sNa2Os-df0Qrg9O8YbUV-51" target="sNa2Os-df0Qrg9O8YbUV-47">
          <mxGeometry relative="1" as="geometry">
            <mxPoint x="296.5" y="99" as="sourcePoint" />
            <mxPoint x="790" y="392" as="targetPoint" />
          </mxGeometry>
        </mxCell>
        <mxCell id="sNa2Os-df0Qrg9O8YbUV-56" style="rounded=0;orthogonalLoop=1;jettySize=auto;html=1;exitX=0.5;exitY=1;exitDx=0;exitDy=0;entryX=0;entryY=0;entryDx=49;entryDy=0;endArrow=none;endFill=0;startArrow=none;startFill=0;entryPerimeter=0;" edge="1" parent="1" source="sNa2Os-df0Qrg9O8YbUV-52" target="sNa2Os-df0Qrg9O8YbUV-47">
          <mxGeometry relative="1" as="geometry">
            <mxPoint x="354" y="169" as="sourcePoint" />
            <mxPoint x="540" y="392" as="targetPoint" />
          </mxGeometry>
        </mxCell>
        <mxCell id="sNa2Os-df0Qrg9O8YbUV-57" style="rounded=0;orthogonalLoop=1;jettySize=auto;html=1;exitX=0.5;exitY=1;exitDx=0;exitDy=0;entryX=0;entryY=0;entryDx=98;entryDy=0;endArrow=none;endFill=0;startArrow=none;startFill=0;entryPerimeter=0;" edge="1" parent="1" source="sNa2Os-df0Qrg9O8YbUV-53" target="sNa2Os-df0Qrg9O8YbUV-47">
          <mxGeometry relative="1" as="geometry">
            <mxPoint x="403" y="102" as="sourcePoint" />
            <mxPoint x="392" y="151" as="targetPoint" />
          </mxGeometry>
        </mxCell>
        <mxCell id="sNa2Os-df0Qrg9O8YbUV-59" value="Server" style="rounded=0;whiteSpace=wrap;html=1;" vertex="1" parent="1">
          <mxGeometry x="286" y="239" width="167" height="229" as="geometry" />
        </mxCell>
        <mxCell id="sNa2Os-df0Qrg9O8YbUV-60" value="Server" style="rounded=0;whiteSpace=wrap;html=1;" vertex="1" parent="1">
          <mxGeometry x="473" y="239" width="167" height="229" as="geometry" />
        </mxCell>
      </root>
    </mxGraphModel>
  </diagram>
</mxfile>
